# xmcd
#
# Track frame offsets: 
#        150
#        21563
#        40238
#        57646
#        74293
#        92048
#        109109
#        129197
#        149720
#        172878
#        190320
#        214235
#        241653
#
# Disc length: 3448 seconds
#
# Revision: 1
# Processed by: cddbd v1.5.2PL0 Copyright (c) Steve Scherf et al.
# Submitted via: ExactAudioCopy v1.0b3
#
DISCID=c00d760d
DTITLE=Trey Songz - Trigga
DYEAR=2014
DGENRE=R&B
TTITLE0=Cake
TTITLE1=Foreign
TTITLE2=Nana
TTITLE3=Touchin, Lovin (featuring Nicki Minaj)
TTITLE4=Disrespectful (featuring Mila J)
TTITLE5=Dead Wrong (featuring Ty Dolla Sign)
TTITLE6=All We Do
TTITLE7=Foreign (Remix)(featuring Justin Bieber)
TTITLE8=Late Night (featuring Juicy J)
TTITLE9=Smartphones
TTITLE10=Yes, No, Maybe
TTITLE11=Y.A.S. (You Ain't Shit)
TTITLE12=Change Your Mind
EXTD=
EXTT0=
EXTT1=
EXTT2=
EXTT3=
EXTT4=
EXTT5=
EXTT6=
EXTT7=
EXTT8=
EXTT9=
EXTT10=
EXTT11=
EXTT12=
PLAYORDER=
